<?xml version="1.0" encoding="UTF-8" standalone="no"?>
<!-- Created with Inkscape (http://www.inkscape.org/) -->

<svg
   xmlns:dc="http://purl.org/dc/elements/1.1/"
   xmlns:cc="http://creativecommons.org/ns#"
   xmlns:rdf="http://www.w3.org/1999/02/22-rdf-syntax-ns#"
   xmlns:svg="http://www.w3.org/2000/svg"
   xmlns="http://www.w3.org/2000/svg"
   xmlns:sodipodi="http://sodipodi.sourceforge.net/DTD/sodipodi-0.dtd"
   xmlns:inkscape="http://www.inkscape.org/namespaces/inkscape"
   width="53.20015mm"
   height="20.741444mm"
   viewBox="0 0 53.20015 20.741444"
   version="1.1"
   id="svg8"
   inkscape:version="0.92.4 5da689c313, 2019-01-14"
   sodipodi:docname="anschluss.svg">
  <defs
     id="defs2" />
  <sodipodi:namedview
     id="base"
     pagecolor="#ffffff"
     bordercolor="#666666"
     borderopacity="1.0"
     inkscape:pageopacity="0.0"
     inkscape:pageshadow="2"
     inkscape:zoom="5.6"
     inkscape:cx="118.84994"
     inkscape:cy="61.57223"
     inkscape:document-units="mm"
     inkscape:current-layer="layer1"
     showgrid="false"
     showguides="true"
     inkscape:guide-bbox="true"
     inkscape:window-width="1916"
     inkscape:window-height="1041"
     inkscape:window-x="0"
     inkscape:window-y="18"
     inkscape:window-maximized="0"
     fit-margin-top="0"
     fit-margin-left="0"
     fit-margin-right="0"
     fit-margin-bottom="0" />
  <metadata
     id="metadata5">
    <rdf:RDF>
      <cc:Work
         rdf:about="">
        <dc:format>image/svg+xml</dc:format>
        <dc:type
           rdf:resource="http://purl.org/dc/dcmitype/StillImage" />
        <dc:title></dc:title>
      </cc:Work>
    </rdf:RDF>
  </metadata>
  <g
     inkscape:label="Layer 1"
     inkscape:groupmode="layer"
     id="layer1"
     transform="translate(-51.782734,-95.018967)">
    <rect
       style="opacity:1;fill:#000000;fill-opacity:1;fill-rule:nonzero;stroke:none;stroke-width:1.55275345;stroke-linecap:round;stroke-linejoin:round;stroke-miterlimit:4;stroke-dasharray:none;stroke-dashoffset:0;stroke-opacity:1;paint-order:normal"
       id="rect937"
       width="53.20015"
       height="20.741444"
       x="51.782734"
       y="95.018967" />
    <g
       id="g935"
       style="fill:#ffffff"
       transform="translate(0.58024724,0.37737514)">
      <g
         transform="translate(8.4666669,-1.0583333)"
         id="text870"
         style="font-style:normal;font-variant:normal;font-weight:normal;font-stretch:normal;font-size:8.46666622px;line-height:6.61458302px;font-family:Belmonte;-inkscape-font-specification:Belmonte;letter-spacing:0px;word-spacing:0px;fill:#ffffff;fill-opacity:1;stroke:none;stroke-width:0.26458332px;stroke-linecap:butt;stroke-linejoin:miter;stroke-opacity:1"
         aria-label="westnetz">
        <path
           inkscape:connector-curvature="0"
           id="path899"
           style="font-style:normal;font-variant:normal;font-weight:normal;font-stretch:normal;font-family:'Rounded Elegance';-inkscape-font-specification:'Rounded Elegance';fill:#ffffff;stroke-width:0.26458332px"
           d="m 55.221735,100.98155 h 0.599447 l 1.389062,3.29489 1.455209,-3.29489 h 0.103353 l 1.44694,3.29489 1.413867,-3.29489 h 0.611849 l -1.967839,4.53512 h -0.115755 l -1.438672,-3.24528 -1.455208,3.24528 h -0.107487 z" />
        <path
           inkscape:connector-curvature="0"
           id="path901"
           style="font-style:normal;font-variant:normal;font-weight:normal;font-stretch:normal;font-family:'Rounded Elegance';-inkscape-font-specification:'Rounded Elegance';fill:#ffffff;stroke-width:0.26458332px"
           d="m 66.743512,103.8961 0.487825,0.26045 q -0.235644,0.47542 -0.553971,0.76481 -0.318327,0.28939 -0.715202,0.44235 -0.396875,0.14883 -0.897103,0.14883 -1.107942,0 -1.732193,-0.72347 -0.624252,-0.72761 -0.624252,-1.64124 0,-0.86403 0.529167,-1.5379 0.669726,-0.85989 1.79834,-0.85989 1.153418,0 1.847949,0.88057 0.491959,0.62011 0.496094,1.54615 h -4.072103 q 0.01654,0.79375 0.504362,1.30225 0.487825,0.50436 1.203027,0.50436 0.347266,0 0.673861,-0.11989 0.326595,-0.12402 0.553971,-0.32246 0.23151,-0.19844 0.500228,-0.64492 z m 0,-1.21956 q -0.115755,-0.46716 -0.338997,-0.74414 -0.223243,-0.28112 -0.591179,-0.45062 -0.367936,-0.17364 -0.773079,-0.17364 -0.665593,0 -1.14515,0.42995 -0.347265,0.31419 -0.525032,0.93845 z" />
        <path
           inkscape:connector-curvature="0"
           id="path903"
           style="font-style:normal;font-variant:normal;font-weight:normal;font-stretch:normal;font-family:'Rounded Elegance';-inkscape-font-specification:'Rounded Elegance';fill:#ffffff;stroke-width:0.26458332px"
           d="m 70.745335,101.36189 -0.37207,0.3886 q -0.471289,-0.45475 -0.913639,-0.45475 -0.285254,0 -0.487826,0.18604 -0.202571,0.18603 -0.202571,0.44235 0,0.21497 0.169498,0.41341 0.165365,0.21084 0.698666,0.48369 0.65319,0.33486 0.8847,0.64906 0.227376,0.31832 0.227376,0.7152 0,0.55397 -0.392741,0.94258 -0.388606,0.38447 -0.975651,0.38447 -0.39274,0 -0.752408,-0.16537 -0.355534,-0.16949 -0.587045,-0.47128 l 0.367937,-0.41755 q 0.446484,0.50436 0.946712,0.50436 0.347265,0 0.591178,-0.22324 0.248047,-0.22738 0.248047,-0.52917 0,-0.25218 -0.16123,-0.44648 -0.161231,-0.19431 -0.731739,-0.48783 -0.615983,-0.31006 -0.835091,-0.62425 -0.223242,-0.30592 -0.223242,-0.7028 0,-0.51676 0.3514,-0.85576 0.355534,-0.34313 0.888834,-0.34313 0.624252,0 1.260905,0.61185 z" />
        <path
           sodipodi:nodetypes="cccccccccccccc"
           inkscape:connector-curvature="0"
           id="path905"
           style="font-style:normal;font-variant:normal;font-weight:normal;font-stretch:normal;font-family:'Rounded Elegance';-inkscape-font-specification:'Rounded Elegance';fill:#ffffff;stroke-width:0.26458332px"
           d="m 73.407704,104.86762 c -0.286631,0.15434 -0.567751,0.16674 -0.843359,0.0372 -0.336241,-0.25631 -0.496094,-0.62149 -0.479557,-1.09554 v -1.91823 h 1.07487 v -0.50022 h -1.079004 v -1.13275 h -0.587045 v 3.65042 c -0.0055,0.33073 0.07026,0.6339 0.227377,0.90951 0.259071,0.43821 0.611849,0.66972 1.058333,0.69453 0.237023,0.008 0.507118,-0.0455 0.810286,-0.16123 -0.04685,-0.11575 -0.107487,-0.27698 -0.181901,-0.48369 z" />
        <path
           sodipodi:nodetypes="sssssssssccssssssccs"
           inkscape:connector-curvature="0"
           id="path907"
           style="font-style:normal;font-variant:normal;font-weight:normal;font-stretch:normal;font-family:'Rounded Elegance';-inkscape-font-specification:'Rounded Elegance';fill:#ffffff;stroke-width:0.26458332px"
           d="m 74.515647,103.78861 c -0.0014,-0.16125 -0.0013,-0.28239 -0.0083,-0.48369 -0.0083,-0.23702 0.0076,-0.4373 0.02894,-0.60358 0.06684,-0.52014 0.186882,-0.90783 0.396875,-1.14515 0.192534,-0.21759 0.393918,-0.3899 0.607715,-0.49196 0.335403,-0.16012 0.731685,-0.21135 1.169954,-0.2067 0.341734,0.004 0.656356,0.0884 0.946712,0.26045 0.291186,0.1725 0.49973,0.4026 0.624252,0.69453 0.123525,0.2896 0.186035,0.74414 0.186035,1.36425 0,0.77721 0,2.33164 0,2.33164 h -0.578776 c 0,0 0,-1.44143 0,-2.16214 0,-0.52365 -0.02422,-0.87314 -0.06615,-1.05006 -0.07108,-0.29991 -0.205939,-0.51163 -0.409277,-0.63666 -0.204567,-0.12578 -0.50574,-0.19017 -0.905371,-0.19017 -0.352778,0 -0.693249,0.0706 -0.942578,0.30593 -0.576107,0.54382 -0.463023,1.43533 -0.463023,2.07119 v 1.66191 H 74.51561 c 0,0 0.0049,-1.14655 3.7e-5,-1.71979 z" />
        <path
           inkscape:connector-curvature="0"
           id="path909"
           style="font-style:normal;font-variant:normal;font-weight:normal;font-stretch:normal;font-family:'Rounded Elegance';-inkscape-font-specification:'Rounded Elegance';fill:#ffffff;stroke-width:0.26458332px"
           d="m 83.528017,103.8961 0.487825,0.26045 q -0.235644,0.47542 -0.553971,0.76481 -0.318327,0.28939 -0.715202,0.44235 -0.396875,0.14883 -0.897103,0.14883 -1.107942,0 -1.732194,-0.72347 -0.624251,-0.72761 -0.624251,-1.64124 0,-0.86403 0.529167,-1.5379 0.669726,-0.85989 1.79834,-0.85989 1.153417,0 1.847949,0.88057 0.491959,0.62011 0.496093,1.54615 h -4.072102 q 0.01654,0.79375 0.504362,1.30225 0.487825,0.50436 1.203027,0.50436 0.347266,0 0.673861,-0.11989 0.326595,-0.12402 0.553971,-0.32246 0.23151,-0.19844 0.500228,-0.64492 z m 0,-1.21956 q -0.115755,-0.46716 -0.338998,-0.74414 -0.223242,-0.28112 -0.591178,-0.45062 -0.367936,-0.17364 -0.773079,-0.17364 -0.665593,0 -1.14515,0.42995 -0.347266,0.31419 -0.525033,0.93845 z" />
        <path
           sodipodi:nodetypes="cccccccccccccc"
           inkscape:connector-curvature="0"
           id="path911"
           style="font-style:normal;font-variant:normal;font-weight:normal;font-stretch:normal;font-family:'Rounded Elegance';-inkscape-font-specification:'Rounded Elegance';fill:#ffffff;stroke-width:0.26458332px"
           d="m 86.884917,104.86762 c -0.286632,0.15434 -0.567752,0.16674 -0.843359,0.0372 -0.336241,-0.25631 -0.496094,-0.62149 -0.479557,-1.09554 v -1.91823 h 1.074869 v -0.50022 h -1.079003 v -1.13275 h -0.587045 v 3.65042 c -0.0055,0.33073 0.07026,0.6339 0.227377,0.90951 0.259071,0.43821 0.611848,0.66972 1.058333,0.69453 0.237023,0.008 0.507118,-0.0455 0.810286,-0.16123 -0.04685,-0.11575 -0.107487,-0.27698 -0.181901,-0.48369 z" />
        <path
           inkscape:connector-curvature="0"
           id="path913"
           style="font-style:normal;font-variant:normal;font-weight:normal;font-stretch:normal;font-family:'Rounded Elegance';-inkscape-font-specification:'Rounded Elegance';fill:#ffffff;stroke-width:0.26458332px"
           d="m 87.629058,100.92367 h 3.327962 l -2.571419,4.06797 h 2.488737 v 0.51676 h -3.489192 l 2.56315,-4.0721 h -2.319238 z" />
      </g>
      <g
         id="text878"
         style="font-style:normal;font-variant:normal;font-weight:normal;font-stretch:normal;font-size:8.46666622px;line-height:6.61458302px;font-family:Belmonte;-inkscape-font-specification:Belmonte;letter-spacing:0px;word-spacing:0px;fill:#ffffff;fill-opacity:1;stroke:none;stroke-width:0.26458332px;stroke-linecap:butt;stroke-linejoin:miter;stroke-opacity:1"
         aria-label="anschluss">
        <path
           id="path880"
           style="font-style:normal;font-variant:normal;font-weight:normal;font-stretch:normal;font-family:'Rounded Elegance';-inkscape-font-specification:'Rounded Elegance';fill:#ffffff;stroke-width:0.26458332px"
           d="m 58.542015,106.04171 q 1.045931,0 1.736328,0.75654 0.636654,0.6904 0.636654,1.64125 0.0083,2.34817 0,2.38538 -0.396875,0 -0.615983,0 0,-0.0289 0,-1.02939 -0.483692,0.90123 -1.756999,1.00872 -1.041797,0 -1.703255,-0.70693 -0.657324,-0.71107 -0.657324,-1.65778 0,-0.94258 0.624251,-1.63711 0.690397,-0.76068 1.736328,-0.76068 z m 0,0.57051 q -0.72347,0 -1.244368,0.53743 -0.520899,0.53744 -0.520899,1.29812 0,0.49195 0.264583,0.94671 0.268718,0.45475 0.905371,0.76894 1.595769,0.35554 2.269629,-1.45107 0.03721,-0.57878 -0.124023,-1.10794 -0.115755,-0.23978 -0.318327,-0.45476 -0.508496,-0.53743 -1.231966,-0.53743 z"
           inkscape:connector-curvature="0" />
        <path
           sodipodi:nodetypes="sssssssssccssssssccs"
           inkscape:connector-curvature="0"
           id="path882"
           style="font-style:normal;font-variant:normal;font-weight:normal;font-stretch:normal;font-family:'Rounded Elegance';-inkscape-font-specification:'Rounded Elegance';fill:#ffffff;stroke-width:0.26458332px"
           d="m 62.051878,109.08028 c -0.0014,-0.16125 -0.0055,-0.32246 -0.0083,-0.48369 -0.0041,-0.23713 0.0076,-0.4373 0.02894,-0.60358 0.06684,-0.52013 0.186879,-0.90783 0.396875,-1.14515 0.192531,-0.21759 0.393914,-0.3899 0.607714,-0.49196 0.335402,-0.16012 0.731686,-0.21135 1.169955,-0.2067 0.341734,0.004 0.656356,0.0884 0.946712,0.26045 0.291185,0.1725 0.499729,0.4026 0.624251,0.69453 0.123525,0.2896 0.186035,0.74414 0.186035,1.36426 0,0.77721 0,2.33164 0,2.33164 h -0.578776 c 0,0 0,-1.44143 0,-2.16215 0,-0.52365 -0.02421,-0.87315 -0.06614,-1.05006 -0.07107,-0.29991 -0.205941,-0.51163 -0.409278,-0.63665 -0.204568,-0.12578 -0.50574,-0.19017 -0.905371,-0.19017 -0.352777,0 -0.69611,0.0676 -0.942578,0.30592 -0.55529,0.53699 -0.463023,1.45461 -0.463023,2.07119 v 1.66192 H 62.05185 c 0,0 0.0049,-1.14655 2.8e-5,-1.7198 z" />
        <path
           id="path884"
           style="font-style:normal;font-variant:normal;font-weight:normal;font-stretch:normal;font-family:'Rounded Elegance';-inkscape-font-specification:'Rounded Elegance';fill:#ffffff;stroke-width:0.26458332px"
           d="m 69.526356,106.65356 -0.37207,0.38861 q -0.471289,-0.45476 -0.913639,-0.45476 -0.285254,0 -0.487826,0.18604 -0.202571,0.18603 -0.202571,0.44235 0,0.21497 0.169498,0.41341 0.165365,0.21084 0.698666,0.48369 0.65319,0.33487 0.8847,0.64906 0.227376,0.31832 0.227376,0.7152 0,0.55397 -0.39274,0.94258 -0.388607,0.38447 -0.975651,0.38447 -0.392741,0 -0.752409,-0.16536 -0.355534,-0.1695 -0.587044,-0.47129 l 0.367936,-0.41755 q 0.446484,0.50436 0.946712,0.50436 0.347266,0 0.591178,-0.22324 0.248047,-0.22738 0.248047,-0.52917 0,-0.25218 -0.16123,-0.44648 -0.161231,-0.1943 -0.731739,-0.48783 -0.615983,-0.31005 -0.835091,-0.62425 -0.223242,-0.30592 -0.223242,-0.7028 0,-0.51676 0.3514,-0.85576 0.355534,-0.34313 0.888834,-0.34313 0.624252,0 1.260905,0.61185 z"
           inkscape:connector-curvature="0" />
        <path
           id="path886"
           style="font-style:normal;font-variant:normal;font-weight:normal;font-stretch:normal;font-family:'Rounded Elegance';-inkscape-font-specification:'Rounded Elegance';fill:#ffffff;stroke-width:0.26458332px"
           d="m 74.954449,107.10004 -0.463021,0.28939 q -0.599446,-0.80202 -1.637109,-0.80202 -0.830957,0 -1.380794,0.5333 -0.545703,0.53331 -0.545703,1.29812 0,0.49609 0.252181,0.93844 0.252181,0.43822 0.690397,0.678 0.438216,0.23977 0.983919,0.23977 1.00459,0 1.637109,-0.79375 l 0.463021,0.30179 q -0.326595,0.48783 -0.876432,0.75655 -0.545703,0.26458 -1.248503,0.26458 -1.070735,0 -1.781803,-0.68213 -0.706934,-0.68213 -0.706934,-1.65778 0,-0.66146 0.33073,-1.2237 0.334863,-0.56637 0.909505,-0.88056 0.578776,-0.31833 1.298112,-0.31833 0.446484,0 0.864029,0.13643 0.42168,0.13642 0.715202,0.35966 0.293522,0.21911 0.496094,0.56224 z"
           inkscape:connector-curvature="0" />
        <path
           sodipodi:nodetypes="ccccsccsccsccsccsccc"
           inkscape:connector-curvature="0"
           id="path888"
           style="font-style:normal;font-variant:normal;font-weight:normal;font-stretch:normal;font-family:'Rounded Elegance';-inkscape-font-specification:'Rounded Elegance';fill:#ffffff;stroke-width:0.26458332px"
           d="m 76.074794,105.04953 h 0.587045 v 2.03811 c 0.234266,-0.31143 0.491959,-0.54432 0.773079,-0.69866 0.283876,-0.15434 0.591178,-0.23151 0.921907,-0.23151 0.341754,0 0.643545,0.0868 0.905372,0.26045 0.261827,0.17087 0.454752,0.401 0.578776,0.69039 0.124023,0.28939 0.186035,0.74552 0.186035,1.36839 v 2.33164 h -0.578776 v -2.16214 c 0,-0.52365 -0.02205,-0.87367 -0.06615,-1.05006 -0.07166,-0.30041 -0.202572,-0.52503 -0.392741,-0.67386 -0.190169,-0.15159 -0.439594,-0.22738 -0.748275,-0.22738 -0.352777,0 -0.669726,0.11713 -0.950846,0.3514 -0.278364,0.23151 -0.461643,0.51952 -0.549837,0.86403 -0.05237,0.22049 -0.07855,0.63252 -0.07855,1.2361 v 1.66191 h -0.587045 z" />
        <path
           sodipodi:nodetypes="ccccc"
           inkscape:connector-curvature="0"
           id="path890"
           style="font-style:normal;font-variant:normal;font-weight:normal;font-stretch:normal;font-family:'Rounded Elegance';-inkscape-font-specification:'Rounded Elegance';fill:#ffffff;stroke-width:0.26458332px"
           d="m 81.180426,105.04126 h 0.587044 v 5.75882 h -0.587044 z" />
        <path
           id="path892"
           style="font-style:normal;font-variant:normal;font-weight:normal;font-stretch:normal;font-family:'Rounded Elegance';-inkscape-font-specification:'Rounded Elegance';fill:#ffffff;stroke-width:0.26458332px"
           d="m 82.896083,106.15747 h 0.587044 v 2.11666 q 0,0.77722 0.08268,1.0666 0.124024,0.41755 0.475423,0.66146 0.3514,0.23978 0.84336,0.23978 0.487825,0 0.826823,-0.23564 0.338997,-0.23565 0.467154,-0.62012 0.09095,-0.26045 0.09095,-1.11208 v -2.11666 h 0.595312 v 2.22828 q 0,0.93845 -0.223242,1.41387 -0.219108,0.47129 -0.657324,0.74001 -0.438216,0.26458 -1.099674,0.26458 -0.665593,0 -1.107943,-0.26458 -0.44235,-0.26872 -0.661458,-0.74828 -0.219108,-0.48369 -0.219108,-1.45107 z"
           inkscape:connector-curvature="0" />
        <path
           id="path894"
           style="font-style:normal;font-variant:normal;font-weight:normal;font-stretch:normal;font-family:'Rounded Elegance';-inkscape-font-specification:'Rounded Elegance';fill:#ffffff;stroke-width:0.26458332px"
           d="m 90.428439,106.65356 -0.37207,0.38861 q -0.47129,-0.45476 -0.91364,-0.45476 -0.285254,0 -0.487825,0.18604 -0.202572,0.18603 -0.202572,0.44235 0,0.21497 0.169499,0.41341 0.165364,0.21084 0.698665,0.48369 0.65319,0.33487 0.884701,0.64906 0.227376,0.31832 0.227376,0.7152 0,0.55397 -0.392741,0.94258 -0.388607,0.38447 -0.975651,0.38447 -0.392741,0 -0.752409,-0.16536 -0.355534,-0.1695 -0.587044,-0.47129 l 0.367936,-0.41755 q 0.446485,0.50436 0.946712,0.50436 0.347266,0 0.591179,-0.22324 0.248047,-0.22738 0.248047,-0.52917 0,-0.25218 -0.161231,-0.44648 -0.16123,-0.1943 -0.731738,-0.48783 -0.615983,-0.31005 -0.835091,-0.62425 -0.223242,-0.30592 -0.223242,-0.7028 0,-0.51676 0.351399,-0.85576 0.355534,-0.34313 0.888835,-0.34313 0.624251,0 1.260905,0.61185 z"
           inkscape:connector-curvature="0" />
        <path
           id="path896"
           style="font-style:normal;font-variant:normal;font-weight:normal;font-stretch:normal;font-family:'Rounded Elegance';-inkscape-font-specification:'Rounded Elegance';fill:#ffffff;stroke-width:0.26458332px"
           d="m 93.73573,106.65356 -0.37207,0.38861 q -0.47129,-0.45476 -0.91364,-0.45476 -0.285254,0 -0.487825,0.18604 -0.202572,0.18603 -0.202572,0.44235 0,0.21497 0.169499,0.41341 0.165364,0.21084 0.698665,0.48369 0.65319,0.33487 0.884701,0.64906 0.227376,0.31832 0.227376,0.7152 0,0.55397 -0.392741,0.94258 -0.388607,0.38447 -0.975651,0.38447 -0.392741,0 -0.752409,-0.16536 -0.355534,-0.1695 -0.587044,-0.47129 l 0.367936,-0.41755 q 0.446485,0.50436 0.946712,0.50436 0.347266,0 0.591179,-0.22324 0.248047,-0.22738 0.248047,-0.52917 0,-0.25218 -0.161231,-0.44648 -0.16123,-0.1943 -0.731738,-0.48783 -0.615983,-0.31005 -0.835091,-0.62425 -0.223242,-0.30592 -0.223242,-0.7028 0,-0.51676 0.351399,-0.85576 0.355534,-0.34313 0.888835,-0.34313 0.624251,0 1.260905,0.61185 z"
           inkscape:connector-curvature="0" />
      </g>
    </g>
  </g>
</svg>
